<svg width="45" height="44" viewBox="0 0 45 44" fill="none" xmlns="http://www.w3.org/2000/svg">
<path d="M41.0494 19.9964C42.3894 12.3914 42.6269 1.18639 41.0494 0.166393C39.4719 -0.852357 28.4594 2.93639 26.1569 7.99514C24.9006 7.66139 22.2981 7.49639 22.2981 7.49639C22.2981 7.49639 19.7819 7.66139 18.5269 7.99514C16.2244 2.93639 5.12564 -0.852357 3.54939 0.166393C1.97189 1.18639 2.20689 12.3914 3.54939 19.9964C3.54939 19.9964 2.34064 22.4701 2.34064 31.1839L22.3406 26.2251V25.1789L42.3406 31.2251C42.3406 22.4701 41.0494 19.9964 41.0494 19.9964" fill="#FFCB4E"/>
<path d="M29.7319 22.8489C27.1256 22.8489 24.3906 23.4451 22.3406 24.4501C20.2919 23.4451 17.5569 22.8489 14.9506 22.8489C2.53564 22.8489 2.34064 29.2239 2.34064 31.1789C2.34064 33.1276 4.79939 43.7201 22.2994 43.7201C39.7994 43.7201 42.3406 33.1689 42.3406 31.2201C42.3406 29.2651 42.1456 22.8489 29.7319 22.8489" fill="#FFD882"/>
<path d="M29.0569 8.81389C31.7694 5.83514 37.4081 3.59889 38.5656 3.88264C39.5056 4.10889 39.3594 11.8651 38.6056 16.3039C35.4019 10.9914 29.0569 8.81389 29.0569 8.81389" fill="#F28F20"/>
<path d="M15.6244 8.81389C12.9144 5.83514 7.27437 3.59889 6.11687 3.88264C5.17562 4.10889 5.32187 11.8651 6.07812 16.3039C9.28187 10.9914 15.6244 8.81389 15.6244 8.81389" fill="#F28F20"/>
<path d="M27.3494 23.7464C27.3494 17.8801 25.0881 7.49638 22.2994 7.49638C19.5106 7.49638 17.2494 17.8801 17.2494 23.7464C17.2494 29.6151 19.5106 26.2464 22.2994 26.2464C25.0881 26.2464 27.3494 29.6151 27.3494 23.7464Z" fill="#FAAA35"/>
<path d="M18.5744 19.9951C18.5744 21.3764 17.4444 22.4951 16.0494 22.4951C14.6556 22.4951 13.5256 21.3764 13.5256 19.9951C13.5256 18.6151 14.6556 17.4976 16.0494 17.4976C17.4444 17.4976 18.5744 18.6151 18.5744 19.9951" fill="#2A2F33"/>
<path d="M31.0981 19.9964C31.0981 21.3776 29.9681 22.4964 28.5731 22.4964C27.1794 22.4964 26.0494 21.3776 26.0494 19.9964C26.0494 18.6164 27.1794 17.4989 28.5731 17.4989C29.9681 17.4989 31.0981 18.6164 31.0981 19.9964" fill="#2A2F33"/>
<path d="M22.3244 34.8401C21.6332 34.8401 21.0744 34.2814 21.0744 33.5901V29.9964C21.0744 29.3051 21.6332 28.7464 22.3244 28.7464C23.0157 28.7464 23.5744 29.3051 23.5744 29.9964V33.5901C23.5744 34.2814 23.0157 34.8401 22.3244 34.8401Z" fill="#F28F20"/>
<path d="M27.3869 37.5989C22.3844 37.5989 21.1906 34.1476 21.1356 33.9789C20.9206 33.3226 21.2781 32.6164 21.9356 32.4026C22.5894 32.1876 23.2831 32.5389 23.5056 33.1826C23.5606 33.3276 24.6006 35.8539 29.5531 34.8639C30.2369 34.7239 30.8906 35.1689 31.0244 35.8451C31.1606 36.5226 30.7206 37.1801 30.0444 37.3151C29.0581 37.5139 28.1756 37.5989 27.3869 37.5989" fill="#F28F20"/>
<path d="M17.2131 37.5989C16.4231 37.5989 15.5419 37.5139 14.5544 37.3151C13.8781 37.1801 13.4381 36.5226 13.5744 35.8451C13.7081 35.1689 14.3606 34.7226 15.0456 34.8639C20.0481 35.8614 21.1056 33.2764 21.1481 33.1651C21.3931 32.5301 22.1069 32.1939 22.7456 32.4264C23.3844 32.6589 23.7269 33.3489 23.5081 33.9914C23.4506 34.1614 22.2156 37.5989 17.2131 37.5989" fill="#F28F20"/>
<path d="M27.3244 25.7364C27.3244 27.9339 23.3044 30.7101 22.2994 30.7101C21.2969 30.7101 17.2756 27.9339 17.2756 25.7364C17.2756 23.5364 20.0806 23.7464 22.2994 23.7464C24.5194 23.7464 27.3244 23.5364 27.3244 25.7364Z" fill="#292F33"/>
<path d="M42.3269 38.6651C41.9806 38.6651 41.6356 38.5214 41.3881 38.2414C41.3506 38.1976 37.4119 33.8639 28.3756 32.4614C27.6931 32.3551 27.2256 31.7164 27.3319 31.0351C27.4381 30.3526 28.0781 29.8901 28.7594 29.9914C29.2169 30.0614 29.6631 30.1401 30.0994 30.2239C39.1519 31.9789 43.0981 36.3989 43.2694 36.5939C43.7219 37.1139 43.6681 37.9039 43.1481 38.3576C42.9119 38.5639 42.6181 38.6651 42.3269 38.6651" fill="#F39120"/>
<path d="M28.5669 32.4751C28.0594 32.4751 27.5806 32.1626 27.3931 31.6589C27.1544 31.0101 27.4869 30.2914 28.1331 30.0526C34.9794 27.5226 43.3344 29.8164 43.6969 29.9164C44.3619 30.1026 44.7494 30.7901 44.5656 31.4551C44.3819 32.1201 43.6944 32.5076 43.0281 32.3264C42.9481 32.3039 35.0806 30.1526 29.0006 32.3989C28.8569 32.4501 28.7106 32.4751 28.5669 32.4751" fill="#F39120"/>
<path d="M2.28439 38.6651C2.63064 38.6651 2.97564 38.5214 3.22314 38.2414C3.26064 38.1976 7.19939 33.8639 16.2356 32.4614C16.9181 32.3551 17.3856 31.7164 17.2794 31.0351C17.1731 30.3526 16.5331 29.8901 15.8531 29.9914C15.3944 30.0614 14.9481 30.1401 14.5119 30.2239C5.45939 31.9789 1.51314 36.3989 1.34189 36.5939C0.889393 37.1139 0.943143 37.9039 1.46314 38.3576C1.69939 38.5639 1.99314 38.6651 2.28439 38.6651" fill="#F39120"/>
<path d="M16.0444 32.4751C16.5519 32.4751 17.0306 32.1626 17.2181 31.6589C17.4569 31.0101 17.1244 30.2914 16.4781 30.0526C9.63188 27.5226 1.27688 29.8164 0.914384 29.9164C0.249384 30.1026 -0.138116 30.7901 0.045634 31.4551C0.229384 32.1201 0.916883 32.5076 1.58313 32.3264C1.66313 32.3039 9.53063 30.1526 15.6106 32.3989C15.7544 32.4501 15.9006 32.4751 16.0444 32.4751" fill="#F39120"/>
</svg>
