<svg width="45" height="45" viewBox="0 0 45 45" fill="none" xmlns="http://www.w3.org/2000/svg">
<path d="M18.75 37.5V41.25C18.75 41.25 18.75 45 22.5 45C26.25 45 26.25 41.25 26.25 41.25V37.5H18.75Z" fill="#DD2E44"/>
<path d="M17.5 2.5C17.5513 -1.25 0 0 0 12.5C0 17.5 0 30 3.75 30C8.75 30 17.4313 7.5 17.5 2.5Z" fill="#272B2B"/>
<path d="M27.5 2.5C27.4488 -1.25 45 0 45 12.5C45 17.5 45 30 41.25 30C36.25 30 27.5688 7.5 27.5 2.5Z" fill="#272B2B"/>
<path d="M38.75 27.5C38.75 36.25 33.75 36.25 33.75 36.25H11.25C11.25 36.25 6.25 36.25 6.25 27.5C6.25 27.5 7.5 0 22.5 0C37.5 0 38.75 27.5 38.75 27.5Z" fill="#CCD6DD"/>
<path d="M28.75 27.5312V27.5H16.25V27.5312C12.7463 27.8475 10 30.7887 10 34.375C10 38.1712 13.0775 41.25 16.875 41.25C19.2025 41.25 21.2562 40.09 22.5 38.32C23.7438 40.09 25.7975 41.25 28.125 41.25C31.9225 41.25 35 38.1712 35 34.375C35 30.7887 32.255 27.8475 28.75 27.5312Z" fill="#8899A6"/>
<path d="M13.75 20C13.75 20 13.75 17.5 16.25 17.5C18.75 17.5 18.75 20 18.75 20V22.5C18.75 22.5 18.75 25 16.25 25C13.75 25 13.75 22.5 13.75 22.5V20Z" fill="#272B2B"/>
<path d="M26.25 20C26.25 20 26.25 17.5 28.75 17.5C31.25 17.5 31.25 20 31.25 20V22.5C31.25 22.5 31.25 25 28.75 25C26.25 25 26.25 22.5 26.25 22.5V20Z" fill="#272B2B"/>
<path d="M18.75 30C17.5 31.25 21.25 35 22.5 35C23.75 35 27.5 31.25 26.25 30C25 28.75 20 28.75 18.75 30Z" fill="#272B2B"/>
</svg>
